<?xml version="1.0" standalone="no"?>
<!DOCTYPE svg PUBLIC "-//W3C//DTD SVG 20010904//EN"
 "http://www.w3.org/TR/2001/REC-SVG-20010904/DTD/svg10.dtd">
<svg version="1.0" xmlns="http://www.w3.org/2000/svg"
 width="511.347190pt" height="504.034584pt" viewBox="0 0 511.347190 504.034584"
 preserveAspectRatio="xMidYMid meet">
<metadata>
Created by potrace 1.12, written by Peter Selinger 2001-2015
</metadata>
<g transform="translate(-0.597724,508.135396) scale(0.100000,-0.100000)"
fill="#000000" stroke="none">
<path d="M2335 5056 c-32 -32 -40 -69 -25 -107 17 -41 47 -59 96 -59 85 0 125
100 65 161 -39 38 -100 41 -136 5z"/>
<path d="M1895 4999 c-484 -168 -879 -612 -990 -1110 l-16 -77 -71 -7 c-109
-10 -214 -41 -315 -90 -230 -113 -392 -308 -470 -562 -23 -77 -26 -106 -27
-233 -1 -119 3 -159 21 -225 103 -379 424 -644 815 -672 l88 -6 2 -886 c3
-885 3 -886 25 -926 27 -51 87 -111 138 -138 l40 -22 1344 -3 c1504 -3 1398
-8 1486 70 25 22 58 64 73 92 l27 51 3 881 2 882 92 16 c238 44 450 157 621
332 98 100 151 175 212 299 164 330 166 670 5 1001 -212 436 -683 705 -1151
656 -62 -6 -113 -11 -114 -9 -1 1 -27 40 -58 87 -173 262 -433 468 -741 587
-81 31 -94 34 -128 24 -63 -19 -89 -101 -48 -153 11 -14 47 -36 82 -48 305
-112 580 -344 729 -616 57 -103 76 -112 183 -88 120 27 314 25 426 -5 286 -76
517 -266 644 -532 178 -369 97 -795 -206 -1085 -138 -132 -334 -232 -505 -258
l-43 -6 0 203 c0 246 -8 281 -80 360 -27 30 -63 60 -80 67 -26 11 -30 18 -30
49 0 60 -30 210 -61 308 -43 135 -77 155 -189 112 -158 -61 -324 50 -323 216
0 69 18 117 61 166 67 77 51 127 -71 212 -96 69 -248 144 -365 182 -121 40
-160 25 -189 -74 -22 -79 -62 -132 -123 -165 -46 -25 -60 -28 -124 -24 -59 3
-81 9 -114 31 -52 34 -89 89 -107 158 -15 55 -40 85 -81 95 -58 15 -315 -94
-464 -197 -127 -86 -147 -133 -89 -205 18 -22 40 -57 50 -79 22 -48 25 -142 6
-188 -50 -118 -185 -175 -307 -128 -75 29 -106 27 -140 -7 -44 -44 -109 -279
-110 -397 0 -38 -2 -41 -55 -69 -56 -29 -96 -71 -131 -136 -17 -31 -19 -62
-22 -264 l-3 -229 -79 7 c-288 24 -528 211 -617 481 -24 70 -27 96 -27 210 0
116 3 139 28 210 48 140 120 243 234 334 122 98 246 140 440 150 139 7 155 15
167 89 18 113 39 205 61 271 126 376 429 693 791 827 96 35 113 45 129 76 21
41 17 74 -13 108 -37 40 -75 45 -148 19z m240 -1160 c42 -71 113 -135 193
-172 63 -30 73 -32 182 -32 109 0 119 2 183 32 76 36 163 116 196 181 12 23
25 42 29 42 11 0 204 -96 226 -113 18 -13 18 -15 -7 -78 -34 -88 -41 -160 -23
-246 19 -93 47 -145 114 -215 92 -97 221 -147 349 -135 l62 6 11 -38 c14 -51
30 -140 30 -162 0 -18 -14 -19 -313 -19 l-313 0 -12 46 c-49 183 -216 345
-403 389 -282 66 -575 -100 -659 -374 l-18 -56 -312 -3 -313 -2 7 57 c4 32 12
81 20 108 l12 50 71 -3 c184 -10 347 89 426 255 27 58 32 82 35 163 3 79 0
105 -18 155 -35 99 -39 93 88 158 62 31 116 57 120 57 4 0 21 -23 37 -51z
m528 -734 c66 -33 140 -106 167 -168 l19 -42 -336 -3 c-185 -1 -338 0 -340 2
-11 11 50 106 94 147 84 79 142 100 258 96 64 -3 92 -9 138 -32z m1147 -433
c56 -27 60 -45 60 -259 l0 -193 -1370 0 -1370 0 0 199 c0 199 0 200 25 230 14
16 36 32 48 34 12 2 596 5 1297 6 1195 1 1277 0 1310 -17z m58 -1518 l-3 -866
-28 -24 -28 -24 -1310 0 -1311 0 -29 29 -29 29 0 861 0 861 1370 0 1370 0 -2
-866z"/>
<path d="M1357 2539 c-29 -17 -49 -68 -43 -105 21 -110 196 -91 196 21 0 52
-44 95 -97 95 -21 0 -46 -5 -56 -11z"/>
<path d="M1713 2532 c-46 -35 -46 -125 -1 -157 37 -25 101 -20 132 11 39 40
37 103 -5 138 -36 31 -92 34 -126 8z"/>
<path d="M1759 1663 c-14 -9 -31 -24 -37 -34 -29 -46 -362 -941 -362 -972 0
-23 8 -42 25 -60 36 -35 70 -41 113 -20 33 16 41 29 76 116 l39 97 207 0 207
0 34 -92 c38 -103 66 -132 125 -132 28 0 43 7 65 32 17 19 29 44 29 59 0 25
-308 859 -352 951 -32 67 -109 93 -169 55z m128 -505 l61 -163 -125 -3 c-69
-1 -127 -1 -129 1 -6 6 118 327 126 327 4 0 34 -73 67 -162z"/>
<path d="M2511 1653 c-20 -20 -31 -44 -36 -74 -3 -24 -5 -246 -3 -494 2 -352
6 -455 16 -473 21 -36 76 -56 118 -42 60 20 64 35 64 222 l0 168 93 0 c164 0
255 35 340 130 66 74 90 143 85 250 -3 73 -9 94 -38 148 -39 73 -92 124 -170
161 -52 25 -64 26 -247 29 l-193 4 -29 -29z m382 -187 c18 -7 45 -28 61 -45
24 -25 30 -42 34 -88 3 -48 0 -64 -20 -92 -39 -58 -79 -75 -190 -79 l-98 -4 0
161 0 161 90 0 c55 0 103 -5 123 -14z"/>
<path d="M3431 1666 c-50 -28 -50 -28 -51 -538 0 -280 4 -487 10 -502 12 -34
55 -60 98 -60 26 0 41 8 63 32 l29 32 0 485 c0 354 -3 491 -12 510 -22 48 -88
68 -137 41z"/>
</g>
</svg>
